<?xml version="1.0" encoding="utf-8"?>
<!-- Generator: Adobe Illustrator 16.0.4, SVG Export Plug-In . SVG Version: 6.00 Build 0)  -->
<!DOCTYPE svg PUBLIC "-//W3C//DTD SVG 1.1//EN" "http://www.w3.org/Graphics/SVG/1.1/DTD/svg11.dtd">
<svg version="1.1" id="Layer_1" xmlns="http://www.w3.org/2000/svg" xmlns:xlink="http://www.w3.org/1999/xlink" x="0px" y="0px"
	 width="1413px" height="199px" viewBox="0 0 1413 199" enable-background="new 0 0 1413 199" xml:space="preserve">
<g>
	<path d="M119.1,114.2c-1.9-3.4-4-6.3-6.5-8.6c-2.5-2.4-4.9-4.3-7.5-5.8c3.9-3.4,7.2-7.9,9.9-13.7c2.7-5.7,4.1-12.3,4.1-19.8
		c0-8.3-1.4-15.7-4.1-22.2c-2.7-6.5-6.4-11.9-11-16.2c-4.7-4.3-10-7.4-16.1-9.6C81.8,15.9,75.4,15,68.6,15h-69v184h63
		c20.5,0,36.1-5,46.8-15.1c10.7-10.1,16.1-24.3,16.1-42.8c0-5.7-0.6-10.8-1.8-15.2C122.5,121.5,121,117.6,119.1,114.2z M36.6,50
		h30.8c4.4,0,8.1,1.8,11.2,5c3,3.1,4.6,7.8,4.6,13.7c0,6.4-1.5,11.1-4.6,14.5c-3,3.4-7,4.8-11.9,4.8h-30V50z M80.9,157.1
		c-3,3.9-7.2,5.9-12.8,5.9H36.6v-41h31.3c5.7,0,10.1,1.4,13.1,5.1c3,3.7,4.4,8.5,4.4,14.8C85.4,148.3,83.9,153.2,80.9,157.1z"/>
	<path d="M187.9,15l-53.3,184h39.8l7.9-28h57.3l8.1,28h39.8L234.8,15H187.9z M191.9,135l18-65h1.3l18.3,65H191.9z"/>
	<polygon points="282.6,15 282.6,51 329.6,51 329.6,199 368.6,199 368.6,51 432.6,51 432.6,199 471.6,199 471.6,51 517.6,51 
		517.6,15 	"/>
	<polygon points="540.6,199 642.6,199 642.6,162 577.6,162 577.6,123 641.6,123 641.6,87 577.6,87 577.6,51 642.6,51 642.6,15 
		540.6,15 	"/>
	<path d="M801.6,146.2c0-5.7-0.9-10.7-2.1-15c-1.2-4.2-2.9-7.8-4.7-10.8c-1.9-3-4-5.4-6.3-7.2c-2.3-1.9-4.7-3.3-7-4.3
		c4.2-2.4,8.1-6.7,11.8-12.9c3.6-6.3,5.4-14.9,5.4-25.9c0-17.3-4.8-30.6-14.5-40.5c-9.6-9.9-23.4-14.6-41.4-14.6h-68.3v184h37v-69
		h33.3c7.1,0,12.4,1.5,15.2,4.7c2.8,3.2,4.5,8.2,4.5,15.3v40.3c0,3.9,0,6.2,1.1,8.7h37c-1.2-2.5-1.2-5.5-1.2-9.4V146.2z M757.3,89.3
		c-3.4,4.3-8.9,6.7-16.5,6.7h-29.3V51h29.8c7.4,0,12.8,2.1,16.1,6.1c3.3,4.1,4.9,9.5,4.9,15.9C762.4,79.4,760.7,84.9,757.3,89.3z"/>
	<polygon points="1047.6,51 1047.6,15 945.6,15 945.6,199 1047.6,199 1047.6,162 982.6,162 982.6,123 1045.6,123 1045.6,87 
		982.6,87 982.6,51 	"/>
	<path d="M893.6,0h-42v15h-21v184h84V15h-21V0z M891.6,56h-15v15h-10V56h-14v-9h14V33h10v14h15V56z"/>
</g>
<g>
	<path d="M1074.5,197.6v-64.4h21.6c5.3,0,9.8,0.8,13.3,2.5c3.6,1.7,6.4,3.9,8.6,6.8c2.2,2.9,3.7,6.3,4.6,10.2
		c0.9,3.9,1.3,8.2,1.3,12.7c0,4.6-0.4,8.9-1.3,12.8s-2.4,7.3-4.6,10.2c-2.2,2.9-5,5.1-8.6,6.8c-3.6,1.7-8,2.5-13.3,2.5H1074.5z
		 M1095.3,184.9c2.7,0,5-0.3,7-0.8c1.9-0.5,3.6-1.5,4.8-3s2.2-3.4,2.8-6c0.6-2.5,0.9-5.8,0.9-9.7c0-3.9-0.3-7.1-0.9-9.6
		c-0.6-2.5-1.5-4.5-2.8-5.9c-1.3-1.4-2.9-2.4-4.8-3c-1.9-0.6-4.3-0.8-7-0.8h-8v38.9H1095.3z"/>
	<path d="M1133.9,197.6v-64.4h35.5V146h-22.7v12.4h22.3v12.5h-22.3v14h22.7v12.8H1133.9z"/>
	<path d="M1180.7,197.6v-64.4h12.8v51.6h28.6v12.8H1180.7z"/>
	<path d="M1284,152c0-1.1-0.1-2.2-0.4-3.1c-0.2-1-0.6-1.8-1.2-2.6c-0.6-0.7-1.3-1.3-2.3-1.7c-1-0.4-2.2-0.6-3.7-0.6
		c-2.5,0-4.4,0.6-5.5,1.7c-1.2,1.1-1.7,2.4-1.7,4c0,0.9,0.1,1.7,0.4,2.4c0.2,0.7,0.7,1.4,1.3,2c0.6,0.6,1.5,1.2,2.6,1.8
		c1.1,0.6,2.6,1.2,4.3,1.8c3.7,1.3,6.8,2.7,9.5,4.2c2.7,1.5,4.8,3.2,6.2,5c1.4,1.7,2.4,3.6,3.1,5.7c0.6,2.1,0.9,4.3,0.9,6.8
		c0,3-0.5,5.7-1.5,8.1c-1,2.4-2.4,4.5-4.2,6.2c-1.8,1.7-4,3-6.6,3.9c-2.6,0.9-5.4,1.4-8.5,1.4c-2.8,0-5.4-0.4-8-1.2
		c-2.5-0.8-4.8-1.9-6.8-3.5c-2-1.5-3.6-3.5-4.9-5.8c-1.3-2.3-2.1-5-2.4-8.1l12.8-3.4c0.1,1.1,0.3,2.1,0.6,3.2c0.3,1.1,0.8,2.1,1.4,3
		c0.6,0.9,1.5,1.6,2.5,2.2c1.1,0.6,2.4,0.8,4.2,0.8c2.5,0,4.4-0.6,5.8-1.9c1.4-1.3,2.1-3.1,2.1-5.4c0-1.8-0.7-3.4-2.1-4.8
		c-1.4-1.4-3.6-2.7-6.8-3.9c-2.9-1.1-5.4-2.2-7.6-3.3c-2.2-1.2-4.1-2.5-5.8-4c-1.8-1.7-3.2-3.5-4-5.7c-0.9-2.1-1.3-4.9-1.3-8.2
		c0-2.7,0.6-5.1,1.7-7.3c1.1-2.2,2.6-4,4.5-5.4c1.9-1.4,4-2.6,6.5-3.3c2.4-0.8,5-1.2,7.6-1.2c2.8,0,5.4,0.4,7.8,1.1
		c2.4,0.7,4.5,1.8,6.3,3.3c1.8,1.5,3.2,3.5,4.2,5.8c1,2.4,1.5,5.3,1.5,8.6L1284,152z"/>
	<path d="M1339.3,133.3h12.9v41.4c0,4.5-0.5,8.4-1.5,11.4c-1,3.1-2.4,5.6-4.3,7.5c-1.9,1.9-4.2,3.3-7,4.1c-2.8,0.8-5.9,1.2-9.5,1.2
		c-3.7,0-6.9-0.4-9.7-1.2c-2.8-0.8-5.2-2.2-7.2-4.1c-1.9-1.9-3.4-4.4-4.5-7.4c-1-3-1.5-6.8-1.5-11.2v-41.8h12.7v42.5
		c0,2.1,0.2,3.9,0.7,5.2c0.4,1.4,1.1,2.4,1.9,3.2c0.9,0.8,1.9,1.3,3.2,1.6c1.3,0.3,2.7,0.4,4.4,0.4c1.5,0,2.9-0.1,4-0.4
		c1.2-0.3,2.1-0.8,2.9-1.6c0.8-0.8,1.4-1.9,1.8-3.2c0.4-1.4,0.6-3.1,0.6-5.2V133.3z"/>
	<path d="M1363.6,197.6v-64.4h21.6c5.3,0,9.8,0.8,13.3,2.5c3.6,1.7,6.4,3.9,8.6,6.8c2.2,2.9,3.7,6.3,4.6,10.2
		c0.9,3.9,1.3,8.2,1.3,12.7c0,4.6-0.4,8.9-1.3,12.8s-2.4,7.3-4.6,10.2c-2.2,2.9-5,5.1-8.6,6.8c-3.6,1.7-8,2.5-13.3,2.5H1363.6z
		 M1384.4,184.9c2.7,0,5-0.3,7-0.8c1.9-0.5,3.6-1.5,4.8-3c1.3-1.4,2.2-3.4,2.8-6s0.9-5.8,0.9-9.7c0-3.9-0.3-7.1-0.9-9.6
		c-0.6-2.5-1.5-4.5-2.8-5.9c-1.3-1.4-2.9-2.4-4.8-3c-1.9-0.6-4.3-0.8-7-0.8h-8v38.9H1384.4z"/>
</g>
</svg>
